<?xml version="1.0" encoding="utf-8"?>
<!-- Generator: Adobe Illustrator 26.1.0, SVG Export Plug-In . SVG Version: 6.00 Build 0)  -->
<svg version="1.1"
	 id="svg4" inkscape:version="1.1 (c68e22c387, 2021-05-23)" sodipodi:docname="snowflake-solid.svg" xmlns:inkscape="http://www.inkscape.org/namespaces/inkscape" xmlns:sodipodi="http://sodipodi.sourceforge.net/DTD/sodipodi-0.dtd" xmlns:svg="http://www.w3.org/2000/svg"
	 xmlns="http://www.w3.org/2000/svg" xmlns:xlink="http://www.w3.org/1999/xlink" x="0px" y="0px" viewBox="0 0 512 512"
	 style="enable-background:new 0 0 512 512;" xml:space="preserve">
<style type="text/css">
	.st0{fill:whitesmoke;}
</style>
<sodipodi:namedview  bordercolor="#666666" borderopacity="1.0" id="namedview6" inkscape:current-layer="svg4" inkscape:cx="255.70302" inkscape:cy="255.10905" inkscape:pagecheckerboard="0" inkscape:pageopacity="0.0" inkscape:pageshadow="2" inkscape:window-height="1051" inkscape:window-maximized="1" inkscape:window-width="1920" inkscape:window-x="-9" inkscape:window-y="-9" inkscape:zoom="1.6835938" pagecolor="#ffffff" showgrid="false">
	</sodipodi:namedview>
<path id="path2" class="st0" d="M475.6,384.1c-5.9,10.2-16.7,15.9-27.7,15.9c-5.5,0-11-1.4-16.1-4.4L406.7,381l5.4,20.3
	c3.4,12.8-4.3,26-17.1,29.3c-2.1,0.6-4.1,0.8-6.2,0.8c-10.6,0-20.4-7.1-23.2-17.8l-17.7-66.9l-59.9-35l0,70.5l48.4,48.9
	c9.3,9.4,9.2,24.6-0.2,33.9c-4.7,4.7-10.8,7-16.9,7c-6.2,0-12.4-2.4-17.1-7.1L288,450.5V480c0,17.7-14.3,32-32,32s-32-14.3-32-32
	l0-29.5l-14.2,14.4c-9.3,9.4-24.5,9.5-34,0.2c-9.4-9.3-9.5-24.5-0.2-33.9l48.4-48.9l-0.8-70.5l-59.9,34.9l-17.7,66.9
	c-2.8,10.8-12.6,17.8-23.2,17.8c-2,0-4.1-0.2-6.2-0.8c-12.8-3.4-20.5-16.5-17.1-29.3l5.4-20.3l-25.1,14.6c-4.2,3-9.8,4.4-15.3,4.4
	c-11,0-21.7-5.7-27.7-15.9c-8.9-15.2-3.8-34.8,11.5-43.8l26-15.1l-20.3-5.5c-12.8-3.4-20.4-16.6-16.9-29.4s16.6-20.3,29.5-16.9
	l65.9,17.9l60.5-35.3L132,220.7l-65.9,17.9c-2.1,0.6-4.2,0.8-6.3,0.8c-10.6,0-20.3-7-23.2-17.7c-3.5-12.8,4.1-25.9,16.9-29.4
	l20.3-5.5l-26-15.2c-15.3-8.9-20.4-28.5-11.5-43.8c8.9-15.3,28.5-20.4,43.8-11.5l25.1,14.6l-5.4-20.3c-3.4-12.8,4.3-25.9,16.2-29.3
	c13.8-3.5,26,4.2,30.3,17l17.7,66.9l59,35l0-70.5l-47.5-48.9c-9.3-9.4-9.3-24.6,0.2-33.9c9.4-9.3,24.6-9.2,34,0.2L224,61.5L223.1,32
	c0-17.7,14.3-32,32-32s32,14.3,32,32l0,29.5l14.2-14.4c9.3-9.4,24.5-9.5,34-0.2c9.4,9.3,9.5,24.5,0.2,33.9l-48.4,48.9l0.8,70.5
	l59.9-34.9l17.7-66.9c3.4-12.8,16.6-20.5,29.4-17c12.8,3.4,20.5,16.5,17.1,29.3l-5.4,20.3l25.1-14.6c15.3-8.9,34.9-3.8,43.8,11.5
	c8.9,15.2,3.8,34.8-11.5,43.8l-26,15.1l20.3,5.5c12.8,3.5,20.4,16.7,16.9,29.4c-2.9,10.7-12.6,17.7-23.2,17.7
	c-2.1,0-4.2-0.3-6.3-0.8l-66.8-17.9L319.5,256l60.5,35.3l65.9-17.9c12.9-3.4,26,4.1,29.5,16.9c3.5,12.8-4.1,26-16.9,29.4l-20.3,5.5
	l26,15.1C479.4,349.3,484.5,368.9,475.6,384.1z"/>
</svg>
